<svg width="25" height="25" viewBox="0 0 25 25" fill="none" xmlns="http://www.w3.org/2000/svg">
<path fill-rule="evenodd" clip-rule="evenodd" d="M24.7916 19.1355L24.7927 19.1386C25.1364 19.5865 25.301 21.075 22.9437 20.8105C21.9757 20.7159 21.0243 20.4953 20.1135 20.1542C19.4016 19.8813 18.7207 19.5335 18.0822 19.1167C17.1361 19.4975 16.1339 19.7206 15.1156 19.7771C14.3888 20.7523 13.4442 21.5441 12.357 22.0892C11.2699 22.6343 10.0703 22.9177 8.85411 22.9167C8.03352 22.9174 7.21796 22.7888 6.43744 22.5355C5.97911 22.8011 5.45828 23.0605 4.88328 23.2782C3.71661 23.7198 2.7489 23.8855 2.05307 23.9344C1.53224 23.973 1.16453 23.9459 0.983277 23.925C0.58536 23.8792 0.22911 23.6521 0.0749435 23.2709C0.00873827 23.1059 -0.0141488 22.9267 0.00846037 22.7504C0.0310695 22.5741 0.0984227 22.4065 0.20411 22.2636C0.46661 21.9042 0.708277 21.5282 0.937443 21.1469C1.38328 20.4032 1.82078 19.6011 1.93119 18.7282C1.44271 17.7956 1.14774 16.774 1.06399 15.7246C0.980237 14.6752 1.10944 13.6197 1.44383 12.6215C1.77822 11.6233 2.3109 10.7029 3.00989 9.91576C3.70888 9.12858 4.55975 8.49078 5.5114 8.04067C5.84459 6.78185 6.43637 5.60624 7.24902 4.58876C8.06167 3.57129 9.07737 2.73427 10.2314 2.13104C11.3854 1.52782 12.6525 1.17162 13.9518 1.08515C15.2511 0.998675 16.5541 1.18383 17.7779 1.6288C19.0017 2.07377 20.1194 2.76881 21.0597 3.66962C22 4.57042 22.7424 5.65724 23.2394 6.86081C23.7365 8.06438 23.9774 9.3583 23.9467 10.6601C23.9161 11.9619 23.6146 13.2431 23.0614 14.4219C22.8635 16.2178 23.7666 17.7292 24.7906 19.1355H24.7916ZM7.29161 10.4167C7.29218 9.31796 7.54105 8.23354 8.01963 7.24449C8.49821 6.25543 9.19412 5.38733 10.0554 4.70503C10.9166 4.02274 11.9209 3.5439 12.9932 3.3043C14.0655 3.0647 15.1781 3.07053 16.2479 3.32137C17.3176 3.5722 18.3168 4.06154 19.1709 4.75283C20.0249 5.44412 20.7117 6.31947 21.1799 7.31349C21.648 8.30751 21.8855 9.39447 21.8746 10.4932C21.8636 11.5919 21.6045 12.6739 21.1166 13.6584C21.0666 13.7589 21.0332 13.8669 21.0177 13.9782C20.7895 15.6188 21.1739 17.1146 21.9604 18.5511C20.8227 18.2743 19.7504 17.777 18.8041 17.0875C18.6521 16.9773 18.4731 16.9102 18.2861 16.8933C18.099 16.8764 17.9109 16.9104 17.7416 16.9917C16.6298 17.526 15.4007 17.7695 14.1692 17.6994C12.9377 17.6294 11.7442 17.2481 10.7001 16.5912C9.65612 15.9343 8.7958 15.0234 8.19969 13.9435C7.60357 12.8636 7.29113 11.6502 7.29161 10.4167ZM5.21244 10.6813C5.27103 12.7536 6.01458 14.7481 7.32685 16.3531C8.63913 17.9581 10.4462 19.083 12.4656 19.5521C11.4455 20.3828 10.1696 20.8354 8.85411 20.8334C8.09369 20.8334 7.37182 20.6865 6.7114 20.4198C6.5568 20.3573 6.38944 20.3328 6.2234 20.3484C6.05736 20.364 5.89749 20.4192 5.75723 20.5094C5.29994 20.8042 4.75724 21.098 4.14474 21.3303C3.78254 21.4683 3.41202 21.5835 3.03536 21.675C3.38224 21.0428 3.73328 20.2896 3.89369 19.5813C3.9739 19.2303 4.01869 18.8896 4.03744 18.5698C4.05015 18.3642 4.00158 18.1593 3.89786 17.9813C3.38964 17.1078 3.12288 16.1148 3.12494 15.1042C3.12494 13.323 3.93744 11.7323 5.21244 10.6813Z" fill="#808080"/>
</svg>
