<svg width="25" height="25" viewBox="0 0 25 25" fill="none" xmlns="http://www.w3.org/2000/svg">
<path fill-rule="evenodd" clip-rule="evenodd" d="M11.7813 1.8502C11.975 1.66552 12.2324 1.5625 12.5001 1.5625C12.7677 1.5625 13.0251 1.66552 13.2188 1.8502L21.5521 9.78666L24.1563 12.2658C24.3566 12.4564 24.473 12.7188 24.4798 12.9953C24.4867 13.2717 24.3834 13.5395 24.1928 13.7398C24.0021 13.9401 23.7398 14.0564 23.4633 14.0633C23.1869 14.0701 22.9191 13.9669 22.7188 13.7762L21.8751 12.971V20.8335C21.8751 21.3861 21.6556 21.916 21.2649 22.3067C20.8742 22.6974 20.3443 22.9169 19.7917 22.9169H5.2084C4.65586 22.9169 4.12596 22.6974 3.73526 22.3067C3.34456 21.916 3.12506 21.3861 3.12506 20.8335V12.971L2.28131 13.7752C2.0813 13.9658 1.81374 14.0692 1.53752 14.0625C1.26129 14.0559 0.99902 13.9398 0.808396 13.7398C0.617772 13.5398 0.514411 13.2722 0.521053 12.996C0.527695 12.7198 0.643795 12.4575 0.843813 12.2669L3.44798 9.78666L11.7813 1.84916V1.8502ZM5.2084 10.9877V20.8335H9.37506V15.6252C9.37506 14.7964 9.7043 14.0015 10.2904 13.4155C10.8764 12.8294 11.6713 12.5002 12.5001 12.5002C13.3289 12.5002 14.1237 12.8294 14.7098 13.4155C15.2958 14.0015 15.6251 14.7964 15.6251 15.6252V20.8335H19.7917V10.9877L12.5001 4.04187L5.2084 10.9867V10.9877ZM13.5417 20.8335V15.6252C13.5417 15.3489 13.432 15.084 13.2366 14.8886C13.0413 14.6933 12.7763 14.5835 12.5001 14.5835C12.2238 14.5835 11.9588 14.6933 11.7635 14.8886C11.5681 15.084 11.4584 15.3489 11.4584 15.6252V20.8335H13.5417Z" fill="#808080"/>
</svg>
