<svg width="25" height="25" viewBox="0 0 25 25" fill="none" xmlns="http://www.w3.org/2000/svg">
<path fill-rule="evenodd" clip-rule="evenodd" d="M13.5417 6.25031C13.5417 5.69775 13.7612 5.16781 14.1519 4.77709C14.5426 4.38637 15.0725 4.16687 15.6251 4.16687H18.7501C19.3026 4.16687 19.8325 4.38637 20.2232 4.77709C20.6139 5.16781 20.8334 5.69775 20.8334 6.25031V9.37546C20.8334 9.92802 20.6139 10.458 20.2232 10.8487C19.8325 11.2394 19.3026 11.4589 18.7501 11.4589H15.6251C15.0725 11.4589 14.5426 11.2394 14.1519 10.8487C13.7612 10.458 13.5417 9.92802 13.5417 9.37546V6.25031ZM18.7501 6.25031H15.6251V9.37546H18.7501V6.25031ZM6.25008 13.5423C5.69755 13.5423 5.16764 13.7618 4.77694 14.1526C4.38624 14.5433 4.16675 15.0732 4.16675 15.6258V18.7509C4.16675 19.3035 4.38624 19.8334 4.77694 20.2241C5.16764 20.6149 5.69755 20.8344 6.25008 20.8344H9.37508C9.92762 20.8344 10.4575 20.6149 10.8482 20.2241C11.2389 19.8334 11.4584 19.3035 11.4584 18.7509V15.6258C11.4584 15.0732 11.2389 14.5433 10.8482 14.1526C10.4575 13.7618 9.92762 13.5423 9.37508 13.5423H6.25008ZM6.25008 15.6258H9.37508V18.7509H6.25008V15.6258ZM15.6251 13.5423C15.0725 13.5423 14.5426 13.7618 14.1519 14.1526C13.7612 14.5433 13.5417 15.0732 13.5417 15.6258V18.7509C13.5417 19.3035 13.7612 19.8334 14.1519 20.2241C14.5426 20.6149 15.0725 20.8344 15.6251 20.8344H18.7501C19.3026 20.8344 19.8325 20.6149 20.2232 20.2241C20.6139 19.8334 20.8334 19.3035 20.8334 18.7509V15.6258C20.8334 15.0732 20.6139 14.5433 20.2232 14.1526C19.8325 13.7618 19.3026 13.5423 18.7501 13.5423H15.6251ZM15.6251 15.6258H18.7501V18.7509H15.6251V15.6258ZM6.25008 4.16687C5.69755 4.16687 5.16764 4.38637 4.77694 4.77709C4.38624 5.16781 4.16675 5.69775 4.16675 6.25031V9.37546C4.16675 9.92802 4.38624 10.458 4.77694 10.8487C5.16764 11.2394 5.69755 11.4589 6.25008 11.4589H9.37508C9.92762 11.4589 10.4575 11.2394 10.8482 10.8487C11.2389 10.458 11.4584 9.92802 11.4584 9.37546V6.25031C11.4584 5.69775 11.2389 5.16781 10.8482 4.77709C10.4575 4.38637 9.92762 4.16687 9.37508 4.16687H6.25008ZM6.25008 6.25031H9.37508V9.37546H6.25008V6.25031Z" fill="#808080"/>
</svg>
